HIERARCHY
ROOT joint_Root
{
	OFFSET 0.0 0.0 0.0
	CHANNELS 6 Xposition Yposition Zposition Zrotation Xrotation Yrotation 
	JOINT Hips
	{
		OFFSET -0.726466 93.3139 -2.00062
		CHANNELS 6 Xposition Yposition Zposition Zrotation Xrotation Yrotation 
		JOINT Spine
		{
			OFFSET 15.7357 0.0 0.0
			CHANNELS 6 Xposition Yposition Zposition Zrotation Xrotation Yrotation 
			JOINT Chest
			{
				OFFSET 8.98455 -0.406207 0.0
				CHANNELS 6 Xposition Yposition Zposition Zrotation Xrotation Yrotation 
				JOINT Neck
				{
					OFFSET 16.3773 0.0 0.0
					CHANNELS 6 Xposition Yposition Zposition Zrotation Xrotation Yrotation 
					JOINT Head
					{
						OFFSET 6.45672 0.0 0.0
						CHANNELS 6 Xposition Yposition Zposition Zrotation Xrotation Yrotation 
						End Site
						{
							OFFSET 0.0 0.0 0.0
						}
					}
				}
				JOINT Shoulder_L
				{
					OFFSET 12.9942 -0.242716 4.98039
					CHANNELS 6 Xposition Yposition Zposition Zrotation Xrotation Yrotation 
					JOINT UpperArm_L
					{
						OFFSET 5.34809 0.0 0.0
						CHANNELS 6 Xposition Yposition Zposition Zrotation Xrotation Yrotation 
						JOINT LowerArm_L
						{
							OFFSET 24.3286 1.87007e-05 0.0
							CHANNELS 6 Xposition Yposition Zposition Zrotation Xrotation Yrotation 
							JOINT Hand_L
							{
								OFFSET 22.2916 0.0 0.0
								CHANNELS 6 Xposition Yposition Zposition Zrotation Xrotation Yrotation 
								End Site
								{
									OFFSET 0.0 0.0 0.0
								}
							}
						}
					}
				}
				JOINT Shoulder_R
				{
					OFFSET 12.9945 -0.242716 -4.98039
					CHANNELS 6 Xposition Yposition Zposition Zrotation Xrotation Yrotation 
					JOINT UpperArm_R
					{
						OFFSET -5.34813 0.0 0.0
						CHANNELS 6 Xposition Yposition Zposition Zrotation Xrotation Yrotation 
						JOINT LowerArm_R
						{
							OFFSET -24.3289 0.000322201 0.0
							CHANNELS 6 Xposition Yposition Zposition Zrotation Xrotation Yrotation 
							JOINT Hand_R
							{
								OFFSET -22.2915 -0.000108084 0.0
								CHANNELS 6 Xposition Yposition Zposition Zrotation Xrotation Yrotation 
								End Site
								{
									OFFSET 0.0 0.0 0.0
								}
							}
						}
					}
				}
			}
		}
		JOINT UpperLeg_L
		{
			OFFSET -2.19248 -6.46944 0.0
			CHANNELS 6 Xposition Yposition Zposition Zrotation Xrotation Yrotation 
			JOINT LowerLeg_L
			{
				OFFSET 39.0811 0.0 -1.23785e-05
				CHANNELS 6 Xposition Yposition Zposition Zrotation Xrotation Yrotation 
				JOINT Foot_L
				{
					OFFSET 40.9854 0.0 -1.26872e-05
					CHANNELS 6 Xposition Yposition Zposition Zrotation Xrotation Yrotation 
					JOINT Toes_L
					{
						OFFSET 11.7543 0.0 0.0
						CHANNELS 6 Xposition Yposition Zposition Zrotation Xrotation Yrotation 
						End Site
						{
							OFFSET 0.0 0.0 0.0
						}
					}
				}
			}
		}
		JOINT UpperLeg_R
		{
			OFFSET -2.19251 6.46944 0.0
			CHANNELS 6 Xposition Yposition Zposition Zrotation Xrotation Yrotation 
			JOINT LowerLeg_R
			{
				OFFSET -39.0811 -0.00228153 -0.0401928
				CHANNELS 6 Xposition Yposition Zposition Zrotation Xrotation Yrotation 
				JOINT Foot_R
				{
					OFFSET -40.9854 0.0 0.0
					CHANNELS 6 Xposition Yposition Zposition Zrotation Xrotation Yrotation 
					JOINT Toes_R
					{
						OFFSET -11.7543 0.0 0.0
						CHANNELS 6 Xposition Yposition Zposition Zrotation Xrotation Yrotation 
						End Site
						{
							OFFSET 0.0 0.0 0.0
						}
					}
				}
			}
		}
	}
}
MOTION
Frames:	8
Frame Time:	0.0333333
0.000000 0.000000 0.000000 0.000000 0.000000 -0.000000 -0.944441 92.406500 -1.680510 88.174800 0.246088 4.919030 15.735700 0.000005 -0.000001 83.961100 85.563600 -83.334300 8.984550 -0.406207 -0.000000 1.063290 -0.969706 1.261630 16.377300 -0.000001 -0.000001 3.369470 -2.683430 0.722889 6.456720 -0.000001 -0.000000 5.710410 -3.406920 -0.459780 12.994200 -0.242716 4.980390 -89.721800 -0.842993 -71.734400 5.348090 -0.000007 -0.000001 -70.874100 38.902100 -11.543500 24.328600 0.000019 0.000005 1.406850 3.492520 -21.956200 22.291600 -0.000001 0.000005 5.630440 5.476060 -5.598490 12.994500 -0.242716 -4.980390 88.217200 5.669330 -72.511600 -5.348130 -0.000001 -0.000004 -66.171000 38.514200 -14.387600 -24.328900 0.000322 -0.000009 3.092960 9.974270 -17.331800 -22.291500 -0.000108 -0.000004 5.799380 5.352410 -1.450600 -2.192480 -6.469440 -0.000000 -175.183000 -7.070000 -2.489600 39.081100 -0.000007 -0.000012 -0.104246 0.250742 22.575200 40.985400 -0.000006 -0.000013 -0.053444 5.400630 -65.397100 11.754300 -0.000000 0.000003 -0.000049 -0.000560 -16.599300 -2.192510 6.469440 -0.000001 179.947000 14.559800 -179.776000 -39.081100 -0.002282 -0.040193 -0.042836 0.132199 19.247200 -40.985400 0.000008 0.000006 3.330260 7.210740 -65.057300 -11.754300 -0.000006 -0.000006 -0.009073 -0.096575 -20.506900
0.000000 0.000000 0.000000 0.000000 0.000000 -0.000000 -0.944602 92.405800 -1.672960 88.208500 0.327342 4.957210 15.735700 0.000005 -0.000001 83.761300 85.549700 -83.204700 8.984550 -0.406207 -0.000000 1.087210 -0.999264 1.121680 16.377300 -0.000001 -0.000001 3.362540 -2.704490 0.697578 6.456720 -0.000001 -0.000000 5.666920 -3.455710 -0.319237 12.994200 -0.242716 4.980390 -89.684900 -0.954904 -71.734300 5.348090 -0.000007 -0.000001 -70.907200 38.871900 -11.654200 24.328600 0.000019 0.000005 1.392760 3.448930 -22.005300 22.291600 -0.000001 0.000005 5.715990 5.476020 -5.596830 12.994500 -0.242716 -4.980390 88.107300 5.980350 -72.402000 -5.348130 -0.000001 -0.000004 -64.833000 38.422300 -15.247700 -24.328900 0.000322 -0.000009 3.751710 11.387500 -18.375600 -22.291500 -0.000108 -0.000004 4.620160 5.369360 -1.968060 -2.192480 -6.469440 -0.000000 -175.213000 -7.027920 -2.444870 39.081100 -0.000007 -0.000012 -0.105235 0.253407 22.552200 40.985400 -0.000006 -0.000013 -0.049240 5.429620 -65.385700 11.754300 -0.000000 0.000003 -0.000052 -0.000588 -16.600400 -2.192510 6.469440 -0.000001 179.881000 14.658600 -179.723000 -39.081100 -0.002282 -0.040193 -0.044186 0.136015 19.253800 -40.985400 0.000008 0.000006 3.270140 7.259950 -65.067800 -11.754300 -0.000006 -0.000006 -0.009223 -0.097733 -20.554200
0.000000 0.000000 0.000000 0.000000 0.000000 -0.000000 -0.965838 92.401500 -1.657160 88.202400 0.483129 5.008080 15.735700 0.000005 -0.000001 82.622100 85.520800 -82.146100 8.984550 -0.406207 -0.000000 1.123550 -1.177460 0.962727 16.377300 -0.000001 -0.000001 3.376380 -2.650100 0.700302 6.456720 -0.000001 -0.000000 5.606260 -3.320390 -0.091143 12.994200 -0.242716 4.980390 -89.627800 -1.124870 -71.690300 5.348090 -0.000007 -0.000001 -71.040000 38.698100 -11.690600 24.328600 0.000019 0.000005 1.413260 3.483750 -22.096700 22.291600 -0.000001 0.000005 5.665830 5.475620 -5.581830 12.994500 -0.242716 -4.980390 87.946600 6.433640 -72.256400 -5.348130 -0.000001 -0.000004 -62.938700 36.571000 -16.586600 -24.328900 0.000322 -0.000009 4.810270 12.965900 -20.562600 -22.291500 -0.000108 -0.000004 3.218740 5.375720 -2.163590 -2.192480 -6.469440 -0.000000 -175.184000 -6.981910 -2.412930 39.081100 -0.000007 -0.000012 -0.104415 0.251098 22.579400 40.985400 -0.000006 -0.000013 -0.030021 5.578640 -65.404200 11.754300 -0.000000 0.000003 -0.000043 -0.000493 -16.596700 -2.192510 6.469440 -0.000001 179.861000 14.792100 -179.643000 -39.081100 -0.002282 -0.040193 -0.045766 0.140542 19.253300 -40.985400 0.000008 0.000006 3.259450 7.251190 -65.091800 -11.754300 -0.000006 -0.000006 -0.009246 -0.097917 -20.561700
0.000000 0.000000 0.000000 0.000000 0.000000 -0.000000 -0.974751 92.403600 -1.695160 88.170600 0.491638 5.002140 15.735700 0.000005 -0.000001 81.473200 85.512400 -81.067400 8.984550 -0.406207 -0.000000 1.115180 -1.353740 0.824171 16.377300 -0.000001 -0.000001 3.408790 -2.561070 0.770229 6.456720 -0.000001 -0.000000 5.534770 -3.074700 -0.016375 12.994200 -0.242716 4.980390 -89.569900 -1.301530 -71.712200 5.348090 -0.000007 -0.000001 -71.224000 38.558000 -11.616900 24.328600 0.000019 0.000005 1.419900 3.475880 -22.235800 22.291600 -0.000001 0.000005 5.550500 5.474610 -5.543540 12.994500 -0.242716 -4.980390 87.793800 6.787270 -71.945800 -5.348130 -0.000001 -0.000004 -60.704500 32.960300 -18.642200 -24.328900 0.000322 -0.000009 5.414090 12.449600 -23.735900 -22.291500 -0.000108 -0.000004 2.405330 5.354880 -1.523930 -2.192480 -6.469440 -0.000000 -175.153000 -6.959620 -2.465570 39.081100 -0.000007 -0.000012 -0.104548 0.251049 22.609100 40.985400 -0.000006 -0.000013 -0.044990 5.537270 -65.387000 11.754300 -0.000000 0.000003 -0.000041 -0.000479 -16.596200 -2.192510 6.469440 -0.000001 179.912000 14.835800 -179.672000 -39.081100 -0.002282 -0.040193 -0.043901 0.135281 19.243100 -40.985400 0.000008 0.000006 3.330660 7.271920 -65.073000 -11.754300 -0.000006 -0.000006 -0.009185 -0.097441 -20.542200
0.000000 0.000000 0.000000 0.000000 0.000000 -0.000000 -0.961904 92.402500 -1.766600 88.125300 0.268744 5.037610 15.735700 0.000005 -0.000001 80.697000 85.511400 -80.379100 8.984550 -0.406207 -0.000000 1.097710 -1.469100 0.649325 16.377300 -0.000001 -0.000001 3.484840 -2.439430 0.908608 6.456720 -0.000001 -0.000000 5.524920 -2.777240 0.067916 12.994200 -0.242716 4.980390 -89.522000 -1.447470 -71.723400 5.348090 -0.000007 -0.000001 -71.282500 38.534000 -11.523100 24.328600 0.000019 0.000005 1.406310 3.428340 -22.318900 22.291600 -0.000001 0.000005 5.480470 5.474620 -5.543850 12.994500 -0.242716 -4.980390 87.712700 6.935680 -71.697300 -5.348130 -0.000001 -0.000004 -58.442500 28.067000 -21.302600 -24.328900 0.000322 -0.000009 5.977140 11.278900 -28.167300 -22.291500 -0.000108 -0.000004 2.755710 5.346080 -1.260150 -2.192480 -6.469440 -0.000000 -175.112000 -7.086520 -2.491880 39.081100 -0.000007 -0.000012 -0.104187 0.249258 22.684500 40.985400 -0.000006 -0.000013 -0.044824 5.453980 -65.386300 11.754300 -0.000000 0.000003 -0.000040 -0.000467 -16.595800 -2.192510 6.469440 -0.000001 179.951000 14.722500 -179.713000 -39.081100 -0.002282 -0.040193 -0.043831 0.134885 19.268900 -40.985400 0.000008 0.000006 3.330650 7.415640 -65.021300 -11.754300 -0.000006 -0.000006 -0.009133 -0.097038 -20.525800
0.000000 0.000000 0.000000 0.000000 0.000000 -0.000000 -0.918204 92.405100 -1.836580 88.074700 -0.168317 5.040630 15.735700 0.000005 -0.000001 80.476300 85.553000 -80.266600 8.984550 -0.406207 -0.000000 1.008610 -1.483340 0.432173 16.377300 -0.000001 -0.000001 3.599160 -2.338420 1.105360 6.456720 -0.000001 -0.000000 5.625280 -2.537790 0.087392 12.994200 -0.242716 4.980390 -89.509500 -1.482270 -71.685500 5.348090 -0.000007 -0.000001 -71.071200 38.611300 -11.514100 24.328600 0.000019 0.000005 1.377720 3.356670 -22.330000 22.291600 -0.000001 0.000005 5.347230 5.473750 -5.511190 12.994500 -0.242716 -4.980390 87.692500 6.928890 -71.529400 -5.348130 -0.000001 -0.000004 -56.232500 22.574100 -24.514800 -24.328900 0.000322 -0.000009 6.841360 10.227300 -34.052200 -22.291500 -0.000108 -0.000004 3.816280 5.345040 -1.229170 -2.192480 -6.469440 -0.000000 -175.077000 -7.342160 -2.493140 39.081100 -0.000007 -0.000012 -0.104028 0.248359 22.727000 40.985400 -0.000006 -0.000013 -0.050951 5.266360 -65.394700 11.754300 -0.000000 0.000003 -0.000040 -0.000470 -16.595900 -2.192510 6.469440 -0.000001 179.972000 14.582600 -179.794000 -39.081100 -0.002282 -0.040193 -0.044872 0.137792 19.277900 -40.985400 0.000008 0.000006 3.318050 7.720180 -64.940000 -11.754300 -0.000006 -0.000006 -0.009068 -0.096535 -20.505200
0.000000 0.000000 0.000000 0.000000 0.000000 -0.000000 -0.878254 92.411400 -1.905440 87.973000 -0.669077 5.041180 15.735700 0.000005 -0.000001 80.629900 85.600100 -80.515900 8.984550 -0.406207 -0.000000 0.918120 -1.438950 0.239273 16.377300 -0.000001 -0.000001 3.639330 -2.216560 1.290240 6.456720 -0.000001 -0.000000 5.810780 -2.363770 0.033881 12.994200 -0.242716 4.980390 -89.510200 -1.473750 -71.611500 5.348090 -0.000007 -0.000001 -70.826600 38.516800 -11.587100 24.328600 0.000019 0.000005 1.418470 3.488220 -22.144700 22.291600 -0.000001 0.000005 5.504610 5.475540 -5.578700 12.994500 -0.242716 -4.980390 87.775000 6.626800 -71.393000 -5.348130 -0.000001 -0.000004 -54.511100 16.609600 -28.290400 -24.328900 0.000322 -0.000009 8.538070 9.847690 -41.278100 -22.291500 -0.000108 -0.000004 5.465810 5.332960 -0.873255 -2.192480 -6.469440 -0.000000 -175.005000 -7.520480 -2.488560 39.081100 -0.000007 -0.000012 -0.103683 0.246935 22.776600 40.985400 -0.000006 -0.000013 -0.079759 4.962350 -65.416100 11.754300 -0.000000 0.000003 -0.000049 -0.000556 -16.599200 -2.192510 6.469440 -0.000001 -179.943000 14.438500 -179.838000 -39.081100 -0.002282 -0.040193 -0.044729 0.137902 19.210700 -40.985400 0.000008 0.000006 3.338940 8.031300 -64.826500 -11.754300 -0.000006 -0.000006 -0.008942 -0.095552 -20.465000
0.000000 0.000000 0.000000 0.000000 0.000000 -0.000000 -0.800732 92.419600 -1.942350 87.906200 -1.222490 5.104200 15.735700 0.000005 -0.000001 81.411900 85.630500 -81.398800 8.984550 -0.406207 -0.000000 0.875521 -1.305290 0.036143 16.377300 -0.000001 -0.000001 3.652000 -2.017220 1.396900 6.456720 -0.000001 -0.000000 5.928250 -2.202600 -0.056677 12.994200 -0.242716 4.980390 -89.513100 -1.451090 -71.447500 5.348090 -0.000007 -0.000001 -70.654600 38.106100 -11.710100 24.328600 0.000019 0.000005 1.451920 3.609330 -21.930100 22.291600 -0.000001 0.000005 5.534480 5.474130 -5.525240 12.994500 -0.242716 -4.980390 87.943300 6.098310 -71.322300 -5.348130 -0.000001 -0.000004 -53.396700 10.263700 -32.404600 -24.328900 0.000322 -0.000009 10.803200 9.312820 -49.701500 -22.291500 -0.000108 -0.000004 7.771220 5.323840 -0.606825 -2.192480 -6.469440 -0.000000 -174.993000 -7.633490 -2.360490 39.081100 -0.000007 -0.000012 -0.103045 0.245509 22.768900 40.985400 -0.000006 -0.000013 -0.115969 4.523230 -65.440600 11.754300 -0.000000 0.000003 -0.000046 -0.000527 -16.598100 -2.192510 6.469440 -0.000001 -179.950000 14.256900 -179.794000 -39.081100 -0.002282 -0.040193 -0.043333 0.134392 19.145100 -40.985400 0.000008 0.000006 3.355300 8.428490 -64.734600 -11.754300 -0.000006 -0.000006 -0.009090 -0.096711 -20.512400
